<?xml version="1.0" encoding="UTF-8" standalone="no"?>
<!-- Created with Inkscape (http://www.inkscape.org/) -->

<svg
   xmlns:dc="http://purl.org/dc/elements/1.1/"
   xmlns:cc="http://creativecommons.org/ns#"
   xmlns:rdf="http://www.w3.org/1999/02/22-rdf-syntax-ns#"
   xmlns:svg="http://www.w3.org/2000/svg"
   xmlns="http://www.w3.org/2000/svg"
   xmlns:sodipodi="http://sodipodi.sourceforge.net/DTD/sodipodi-0.dtd"
   xmlns:inkscape="http://www.inkscape.org/namespaces/inkscape"
   width="80.847412mm"
   height="74.941666mm"
   viewBox="0 0 80.847412 74.941666"
   version="1.1"
   id="svg8"
   inkscape:version="0.92.4 (5da689c313, 2019-01-14)"
   sodipodi:docname="logout_divided.svg">
  <defs
     id="defs2" />
  <sodipodi:namedview
     id="base"
     pagecolor="#ffffff"
     bordercolor="#666666"
     borderopacity="1.0"
     inkscape:pageopacity="0.0"
     inkscape:pageshadow="2"
     inkscape:zoom="1.4"
     inkscape:cx="115.84107"
     inkscape:cy="122.38742"
     inkscape:document-units="mm"
     inkscape:current-layer="layer1"
     showgrid="false"
     inkscape:window-width="1858"
     inkscape:window-height="1057"
     inkscape:window-x="-8"
     inkscape:window-y="-8"
     inkscape:window-maximized="1"
     inkscape:pagecheckerboard="false"
     showborder="true"
     fit-margin-bottom="-0.2"
     fit-margin-top="0"
     fit-margin-left="0"
     fit-margin-right="0" />
  <metadata
     id="metadata5">
    <rdf:RDF>
      <cc:Work
         rdf:about="">
        <dc:format>image/svg+xml</dc:format>
        <dc:type
           rdf:resource="http://purl.org/dc/dcmitype/StillImage" />
        <dc:title></dc:title>
      </cc:Work>
    </rdf:RDF>
  </metadata>
  <g
     inkscape:label="Layer 1"
     inkscape:groupmode="layer"
     id="layer1"
     transform="translate(-36.773467,-88.580124)">
    <g
       id="g924">
      <g
         transform="matrix(-0.26458333,0,0,-0.26458333,115.35484,165.44146)"
         id="g882">
        <g
           id="g823">
	<g
   id="g821">
		<g
   id="g819">
			
			<g
   id="g929">
  <g
     id="g937">
    <path
       id="path815"
       transform="rotate(-180,217.9934,312.64528)"
       d="m 280.98633,334.79102 c -78.299,0 -142,63.701 -142,142 0,78.29899 63.701,142 142,142 30.147,0 58.95092,-9.3361 83.29492,-26.9961 2.789,-2.023 3.54628,-5.85311 1.73828,-8.78711 l -22.86328,-37.09179 c -0.962,-1.559 -2.53013,-2.64891 -4.32813,-3.00391 -1.79599,-0.354 -3.66053,11.48359 -5.14453,12.55859 -14.23,10.323 -71.06826,4.35157 -88.69726,4.35157 -45.783,0 -43.03125,-37.24825 -43.03125,-83.03125 0,-45.783 -2.75175,-83.0293 43.03125,-83.0293 17.629,0 74.46726,-4.90213 88.69726,5.42187 1.484,1.076 3.34854,11.84333 5.14453,11.48633 1.798,-0.355 3.36613,-1.4439 4.32813,-3.0039 l 22.86328,-37.0918 c 1.808,-2.934 1.05072,-6.76311 -1.73828,-8.78711 -24.344,-17.661 -53.14792,-26.99609 -83.29492,-26.99609 z m 78.99219,86.02148 c -2.43,0 -10.01907,1.33752 -11.16407,3.47852 -1.147,2.142 7.19402,13.90187 8.54102,15.92187 l 9.74805,14.0332 h -90.70899 c -12.53083,0 -13.93181,9.97015 -13.99414,22.38086 h -0.0137 c -5e-5,0.0581 -0.008,0.1059 -0.008,0.16407 0,0.18663 0.007,0.35932 0.008,0.54492 -2e-5,0.0167 1e-5,0.0321 0,0.0488 h 0.002 c 0.0389,12.56897 1.36022,22.70703 14.00586,22.70703 h 90.35156 l -7.70312,11.57812 c -1.348,2.02 -10.30325,16.23496 -9.15625,18.37696 1.146,2.14098 7.6628,3.47851 10.0918,3.47851 h 42.05078 c 2.201,0 2.85517,-1.10059 4.07617,-2.93359 l 37.36133,-50.14844 c 0.62287,-0.9341 0.95705,-1.98708 1.04882,-3.05859 h 0.0352 c -0.002,-0.0856 -0.0181,-0.17037 -0.0234,-0.25586 0.008,-0.16748 0.0277,-0.33429 0.0234,-0.50196 h -0.0703 c -0.13022,-0.95783 -0.45505,-1.89428 -1.01367,-2.73242 L 407.1778,423.74606 c -1.221,-1.832 -3.45329,-2.93359 -5.65429,-2.93359 z"
       style="stroke-width:0.75590551;stroke-miterlimit:4;stroke-dasharray:none"
       inkscape:connector-curvature="0" />
  </g>
</g>

		</g>

	</g>

</g>
        <g
           id="g825">
</g>
        <g
           id="g827">
</g>
        <g
           id="g829">
</g>
        <g
           id="g831">
</g>
        <g
           id="g833">
</g>
        <g
           id="g835">
</g>
        <g
           id="g837">
</g>
        <g
           id="g839">
</g>
        <g
           id="g841">
</g>
        <g
           id="g843">
</g>
        <g
           id="g845">
</g>
        <g
           id="g847">
</g>
        <g
           id="g849">
</g>
        <g
           id="g851">
</g>
        <g
           id="g853">
</g>
      </g>
    </g>
  </g>
</svg>
